<?xml version="1.0" encoding="UTF-8" standalone="no"?>
<!-- Uploaded to: SVG Repo, www.svgrepo.com, Generator: SVG Repo Mixer Tools -->

<svg
   width="800px"
   height="800px"
   viewBox="0 0 24 24"
   fill="none"
   version="1.1"
   id="svg1"
   sodipodi:docname="dual-screen-group-svgrepo-com.svg"
   inkscape:version="1.3 (0e150ed6c4, 2023-07-21)"
   xmlns:inkscape="http://www.inkscape.org/namespaces/inkscape"
   xmlns:sodipodi="http://sodipodi.sourceforge.net/DTD/sodipodi-0.dtd"
   xmlns="http://www.w3.org/2000/svg"
   xmlns:svg="http://www.w3.org/2000/svg">
  <defs
     id="defs1" />
  <sodipodi:namedview
     id="namedview1"
     pagecolor="#ffffff"
     bordercolor="#000000"
     borderopacity="0.25"
     inkscape:showpageshadow="2"
     inkscape:pageopacity="0.0"
     inkscape:pagecheckerboard="0"
     inkscape:deskcolor="#d1d1d1"
     inkscape:zoom="1.47625"
     inkscape:cx="400"
     inkscape:cy="400"
     inkscape:window-width="2560"
     inkscape:window-height="1377"
     inkscape:window-x="3832"
     inkscape:window-y="1103"
     inkscape:window-maximized="1"
     inkscape:current-layer="svg1" />
  <path
     d="m 19.99637,20.24756 c 0,0.9665 -0.7835,1.75 -1.75,1.75 H 5.75123 c -0.9665,0 -1.75,-0.7835 -1.75,-1.75 v -7.2475 c 0,-0.0868 0.0063,-0.1721 0.0185,-0.2555 l 15.95811,-10e-5 c 0.01221,0.0834 0.01853,0.1687 0.01853,0.2556 z m 0.0024,-9.2475 c 0,0.0833 -0.0058,0.1653 -0.01709,0.2455 l -15.96099,-3e-4 c -0.0112,-0.0801 -0.017,-0.162 -0.017,-0.2452 V 3.75244 c 0,-0.9665 0.7835,-1.75 1.75,-1.75 h 12.49508 c 0.9665,0 1.75,0.7835 1.75,1.75 z"
     fill="#212121"
     id="path1" />
</svg>
